<svg xmlns="http://www.w3.org/2000/svg" viewBox="0 0 128 128" id="Sap">
  <path d="M127.77 31.06A2 2 0 0 0 126 30H2a2 2 0 0 0-2 2v64a2 2 0 0 0 2 2h80.82a2 2 0 0 0 1.66-.88l43.18-64a2 2 0 0 0 .11-2.06ZM81.76 94H4V34h118.24Z" fill="#7e22ce" class="color000000 svgShape"></path>
  <path d="M20.44 69.26a31.41 31.41 0 0 1 5.07 2A8.45 8.45 0 0 1 22 72a20.49 20.49 0 0 1-8.11-1.79 2 2 0 0 0-2.73 1l-3 7a2 2 0 0 0 .29 2.06c.16.19 4 4.73 13.55 4.73a22.23 22.23 0 0 0 9.37-1.84A2 2 0 0 0 33 84h10a2 2 0 0 0 1.86-1.26l1.32-3.3a21 21 0 0 0 9.64 0l1.32 3.3A2 2 0 0 0 59 84h17a2 2 0 0 0 2-2v-8h4c5.69 0 13.94-5.69 14-16a12.73 12.73 0 0 0-3.66-9.31A17.63 17.63 0 0 0 80 44H66a2 2 0 0 0-2 2v15.93l-6.12-16.62A2 2 0 0 0 56 44H46a2 2 0 0 0-1.88 1.31l-6.78 18.33c-1-1.18-2.75-2.67-6.35-4.22-1.13-.49-2.28-1-3.4-1.4-1.48-.6-3.3-1.34-4.58-2a16.43 16.43 0 0 1 2.86-.11 18.34 18.34 0 0 1 6.17 2 2 2 0 0 0 2.67-.77l4.22-7.35a2 2 0 0 0 .19-1.56 2 2 0 0 0-1-1.22s-1.11-.57-3.33-1.64a25.08 25.08 0 0 0-15.35-1.78C12.17 45.13 8 49.66 8 56c0 5.71 4.65 10.67 12.44 13.26Zm-.16-21.77A21.09 21.09 0 0 1 33.05 49l1.36.65-2.26 3.92a19.34 19.34 0 0 0-6.09-1.6c-1.75-.07-6 0-7.64 1.9a2.89 2.89 0 0 0-.64 2.52c.47 2.11 3 3.23 8.32 5.37 1.08.43 2.21.89 3.31 1.36 4.2 1.81 5 3.27 5.48 4a8.76 8.76 0 0 1 .68 2.12 2 2 0 0 0 3.84.32l8-21.58h7.19l9.51 25.84a2 2 0 0 0 3.89-.67V48h12c2.9 0 6.93.92 9.51 3.52A8.76 8.76 0 0 1 92 58c0 8-6.43 12-10 12h-6a2 2 0 0 0-2 2v8H60.35l-1.49-3.74a2 2 0 0 0-2.61-1.11A16 16 0 0 1 51 76a15.81 15.81 0 0 1-5.24-.85 2 2 0 0 0-2.62 1.11L41.65 80h-5.88l.13-.37a2 2 0 0 0-3.43-1.92C32.35 77.85 29.53 81 22 81c-5.29 0-8.26-1.56-9.6-2.53l1.67-3.88A24.37 24.37 0 0 0 22 76c3.83 0 8-1.72 8-4.5s-2.17-4-8.27-6S12 59.84 12 56c0-4.47 2.79-7.34 8.28-8.51Z" fill="#7e22ce" class="color000000 svgShape"></path>
  <path d="M51 71a8.08 8.08 0 0 0 4.15-1.37 2 2 0 0 0 .69-2.37l-3.19-8.05A2 2 0 0 0 50.77 58a2 2 0 0 0-1.84 1.34l-2.82 8.05a2 2 0 0 0 .61 2.2A7 7 0 0 0 51 71zm0-5.32.5 1.27a2.3 2.3 0 0 1-.5.05 2.67 2.67 0 0 1-.5 0zm24.92-1.42h3.52c5.53 0 6.69-3 6.69-5.52s-1.13-5.52-6.69-5.52h-3.52a2 2 0 0 0-2 2v7a2 2 0 0 0 2 2.04zm2-7h1.52c2.69 0 2.69.67 2.69 1.52s0 1.52-2.69 1.52h-1.52z" fill="#7e22ce" class="color000000 svgShape"></path>
</svg>
