<svg xmlns="http://www.w3.org/2000/svg" xml:space="preserve" width="512px" height="512px" version="1.1" style="shape-rendering:geometricPrecision; text-rendering:geometricPrecision; image-rendering:optimizeQuality; fill-rule:evenodd; clip-rule:evenodd" viewBox="0 0 512 512" xmlns:xlink="http://www.w3.org/1999/xlink">
 <defs>
  <style type="text/css">
   
    .fil0 {fill:black}
   
  </style>
 </defs>
 <g id="Layer_x0020_1">
  <metadata id="CorelCorpID_0Corel-Layer"></metadata>
  <g id="_529493432">
   <g>
    <g>
     <path class="fil0" d="M421 511l-330 0c-24,0 -47,-10 -64,-27 -17,-17 -27,-40 -27,-64l0 -328c0,-24 10,-47 27,-64 17,-17 40,-27 64,-27l330 0c24,0 47,10 64,27 18,17 27,40 27,64l0 328c0,24 -9,47 -27,64 -17,17 -40,27 -64,27zm-330 -496c-42,0 -77,35 -77,77l0 328c0,42 35,77 77,77l330 0c43,0 77,-35 77,-77l0 -328c0,-42 -34,-77 -77,-77l-330 0z" id="id_104" style="fill: rgb(126, 34, 206);"></path>
    </g>
    <g>
     <path class="fil0" d="M256 378c-33,0 -63,-13 -86,-36 -23,-23 -36,-53 -36,-86 0,-33 13,-63 36,-86 23,-23 53,-36 86,-36 33,0 63,13 86,36 23,23 36,53 36,86 0,33 -13,63 -36,86 -23,23 -53,36 -86,36zm0 -230c-61,0 -108,47 -108,108 0,61 47,108 108,108 61,0 108,-47 108,-108 0,-61 -47,-108 -108,-108z" id="id_105" style="fill: rgb(126, 34, 206);"></path>
    </g>
    <g>
     <path class="fil0" d="M409 145c-22,0 -40,-18 -40,-39 0,-22 18,-40 40,-40 22,0 39,18 39,40 0,22 -17,39 -39,39zm0 -65c-14,0 -26,12 -26,26 0,14 12,25 26,25 14,0 25,-11 25,-25 0,-14 -11,-26 -25,-26z" id="id_106" style="fill: rgb(126, 34, 206);"></path>
    </g>
   </g>
  </g>
 </g>
</svg>